PathFileType	4	(X/Y/Z)	29_2_82_p0_0-423_filt_butterworth.trc
DataRate	CameraRate	NumFrames	NumMarkers	Units	OrigDataRate	OrigDataStartFrame	OrigNumFrames
48.0	48.0	5	27	m	48.0	211	423
Frame#	Time	RHip			RKnee			RAnkle			RBigToe			RSmallToe			RHeel			LHip			LKnee			LAnkle			LBigToe			LSmallToe			LHeel			Neck			Head			Nose			RShoulder			RElbow			RWrist			RThumb			RIndex			RPinky			LShoulder			LElbow			LWrist			LThumb			LIndex			LPinky			
		X1	Y1	Z1	X2	Y2	Z2	X3	Y3	Z3	X4	Y4	Z4	X5	Y5	Z5	X6	Y6	Z6	X7	Y7	Z7	X8	Y8	Z8	X9	Y9	Z9	X10	Y10	Z10	X11	Y11	Z11	X12	Y12	Z12	X13	Y13	Z13	X14	Y14	Z14	X15	Y15	Z15	X16	Y16	Z16	X17	Y17	Z17	X18	Y18	Z18	X19	Y19	Z19	X20	Y20	Z20	X21	Y21	Z21	X22	Y22	Z22	X23	Y23	Z23	X24	Y24	Z24	X25	Y25	Z25	X26	Y26	Z26	X27	Y27	Z27	
211	4.395833333333333	0.3802600228282848	0.541448467766941	0.9664528385674621	0.32751823404927555	0.7091373225655069	1.3627058152800517	0.28714544479951154	0.7909639879385244	1.7377608922135375	0.2871480165970476	0.6298467000659088	1.7740365307558472	0.32066621700945463	0.6511471291582743	1.7655491240817665	0.26480881066129847	0.8674328797350238	1.7917674037417282	0.17041458153716013	0.5368072863017455	0.9433327202204667	0.12098999616589354	0.7104969015690428	1.3494319738211875	0.10423523695428465	0.7718394877269377	1.7143662871057868	0.12781288139830171	0.6208891655569688	1.7563972481735148	0.07322357302140506	0.6498528050360346	1.7535320498531266	0.10559033666185386	0.8151463510755088	1.7503947984408461	0.31158374669273237	0.4445090381321637	0.4063566881697702	0.32938040375080707	0.3789811709410468	0.17460594816833608	0.3496503774988595	0.31589996548356314	0.29987238540225214	0.45697193465031594	0.4846433094969222	0.4909490476101705	0.501910280959921	0.5144179592410789	0.7476812421480322	0.4754975169582234	0.44626080315089406	0.9665357422165293	0.416573396214617	0.4252272806939392	1.0856390709449917	0.43227141377604617	0.4342881546058049	1.0997988459954808	0.4704447341794303	0.45820641496333614	1.0902519869700527	0.14033735891532995	0.4936570487984714	0.48177799225888884	0.08839081028905374	0.5013774795435663	0.7096118432381189	0.04382246166111603	0.5357223652063742	0.9567883011834873	0.06838310401749076	0.5255781949488397	1.0528559236035075	0.052959777025548535	0.5353695612010769	1.0644155267620075	0.012156734147880233	0.5992143912170869	1.0721866829079487
212	4.416666666666667	0.38042426632960197	0.5422117265711113	0.9667498924699162	0.32753197048421406	0.7091797163383619	1.3627273798562016	0.28710580745071	0.7910967472500413	1.736825440275291	0.28697139754065404	0.6292786717009812	1.7720183134053975	0.3195710414919134	0.647152904334737	1.7638778381742815	0.26365451106149473	0.8676207035181052	1.7930228604665268	0.16824589542213952	0.5433842124208903	0.9454499474987719	0.12095951387407114	0.7105233944570042	1.3497550371503537	0.10427471649998056	0.7721782228609477	1.7144238250010968	0.1278027580670676	0.6209268412645168	1.7563935546757976	0.0732437632666653	0.6494283542741964	1.753299239459995	0.10556411005869316	0.8151702824410014	1.7504144122014178	0.3115921393084111	0.4439323656448171	0.40486117997897497	0.3291300903591527	0.3796970855524663	0.17435471907355315	0.34843688604602246	0.31973155231480854	0.29906863748753193	0.4559417288801393	0.4814540968544938	0.49055352793578666	0.5018515355041232	0.5141561177556577	0.7477352480471915	0.47551527990737374	0.44635696067392067	0.9663014436976735	0.4164550159532762	0.43297385121478144	1.0873259038084069	0.4308039768251666	0.4400781517684448	1.1006703134811753	0.4701693822882162	0.46199781161458486	1.090028239318317	0.1399298114469853	0.49372120775466233	0.4843952159234386	0.08769340295475533	0.5064770640605792	0.7101270647780428	0.04106325009668023	0.5422640464601503	0.9579146583290015	0.06971311934969522	0.5268646863025283	1.055471997252696	0.052564082239363145	0.537870233845183	1.0649531399073104	0.010801493444093944	0.6066060238887899	1.07386040494763
213	4.4375	0.38127704905329685	0.5457028749592263	0.9671616315300239	0.3275178415441064	0.7091538153714707	1.3626909738989468	0.2870566200635821	0.7909586014471507	1.735485414876894	0.28701787856877214	0.6295062024934938	1.7705655371803533	0.31960713567284516	0.6462317635208058	1.7636034473445599	0.2630893838214889	0.8676946596837809	1.7925945205077713	0.16684653459515755	0.5481475979062639	0.9467726156768488	0.1210506064864307	0.7105257322382683	1.34976153762906	0.10426958360680469	0.7721956323561311	1.714450193584326	0.12779001125056477	0.6209592600877111	1.7563891190186052	0.07358280238962793	0.6501729583185556	1.7534965656943924	0.10558659323898686	0.8150557876537443	1.7503127457641763	0.31167130710171953	0.4431736718282594	0.40130054925263947	0.3280429548413404	0.38308027119088217	0.17316803363020303	0.3467367359422609	0.32437448212080655	0.2958973765330518	0.45573131061501426	0.4808230233524656	0.4888975532937727	0.5018494986135913	0.5140693437851007	0.7477675787907345	0.4755322116232085	0.44676375353733877	0.9652821091647836	0.4163226462653936	0.44273503833975775	1.0883985730655001	0.4313464324467819	0.4453083861643941	1.1008419896451445	0.4692556139578731	0.4674583623081321	1.0899967441547067	0.13913362244346517	0.49037684822932825	0.48531000104430166	0.08640379233425254	0.5102701747051162	0.7104890817237843	0.03939295101950904	0.5466023132920671	0.958798741854685	0.0696788716923927	0.5297574832809258	1.0560953554331232	0.052714214535875756	0.5414009385780947	1.0655623495092543	0.010304391745482522	0.6056627512281829	1.0728967804910725
214	4.458333333333333	0.38245994742164385	0.5505213133423427	0.9669496924643607	0.3275204057940928	0.7089956533058033	1.362601537736973	0.28702575935859526	0.7907995211175752	1.7347702504696734	0.2873018749587259	0.6304361297810746	1.7711593299506454	0.32113025107147364	0.6477092740751197	1.7643422487287612	0.2630523431430082	0.8681745593153487	1.79104758040787	0.16617046912347563	0.549006783002639	0.9462629909308962	0.12136872682544665	0.710532116176726	1.3483877729623932	0.10425575209417594	0.7721488783898574	1.7144442218961014	0.12772612092126465	0.6208670202906135	1.756417548622254	0.07370517412965241	0.6545053595718212	1.7553962457604944	0.10564231514355632	0.8149359115515455	1.7501559474582309	0.31179245426005187	0.4427019002560298	0.3972367475626359	0.3264381831229788	0.3878915226423883	0.17106054231131207	0.3455391243887507	0.326723596387197	0.2910735104121468	0.4562228094591977	0.4795961538743843	0.4869912952717651	0.5019204752686349	0.5137631881431848	0.7474010783625771	0.4755483005303814	0.44732448840766803	0.963791554069797	0.41752820568376725	0.4517854068596566	1.0883689837822363	0.4341632060326703	0.45051420564628897	1.101164504275269	0.46823043401515907	0.47145423539284403	1.0901918906273715	0.13818956542637204	0.4850812580284918	0.48516545861610944	0.08274624290589025	0.5143149043673576	0.7108385405554736	0.038883118528260374	0.5462940263747487	0.9588777070835809	0.06744235839257076	0.5315427728468667	1.0541126610043905	0.052579543152071	0.543543764420135	1.065948180994366	0.009703045258902745	0.6001115775408092	1.0698066665326906
215	4.479166666666667	0.3831259388373403	0.5533388510244899	0.9658565088676041	0.3275238774199422	0.7089287524853064	1.3625084433972794	0.287067244066313	0.7909569906427762	1.7351291298768867	0.2876745620537758	0.6314996414395635	1.774047585537887	0.32341647093576115	0.6500776406393911	1.7653443722881466	0.2632111707209233	0.8689166354977942	1.7903190701343616	0.16499849466898345	0.5474868341504299	0.9451073617439611	0.12158118431901475	0.7103506710601046	1.3451737385597702	0.10423645201994461	0.7721434818184024	1.714448128382632	0.1276135594477391	0.620626523535353	1.7564524202914078	0.07236744795178304	0.661304932981855	1.7586084839630818	0.10555324632259386	0.8150667214839967	1.7504966523107481	0.31185436882498785	0.4426838195595323	0.3949016200605181	0.3252914985230628	0.39079558450158997	0.16877771766535637	0.345104089617013	0.32623844613349573	0.28709542048630554	0.4574733886993951	0.47527467799025924	0.4875963708347239	0.5020866018484689	0.5134408644925289	0.7464969197626357	0.47549655897178666	0.44750850250475666	0.9627416133082249	0.4202161351747321	0.46113225129770985	1.088346719604234	0.43706362110110125	0.4563076340931396	1.1025336044899812	0.46814796328690583	0.4729041159013206	1.0904214412731845	0.13766049793604992	0.4814907019274992	0.4850358039649971	0.07474030280213326	0.5224562257294841	0.7112774026233375	0.039525824566999136	0.5384025559322719	0.9567946321974378	0.06545420870349108	0.530338828959949	1.0504976250923292	0.05206930042454353	0.5388041958996531	1.0651577651147217	0.008584843285723783	0.5910324390813225	1.064872205703684
